<?xml version="1.0" standalone="no"?><!DOCTYPE svg PUBLIC "-//W3C//DTD SVG 1.1//EN" "http://www.w3.org/Graphics/SVG/1.1/DTD/svg11.dtd"><svg t="1601280603000" class="icon" viewBox="0 0 1024 1024" version="1.1" xmlns="http://www.w3.org/2000/svg" p-id="6290" xmlns:xlink="http://www.w3.org/1999/xlink" width="32" height="32"><defs><style type="text/css"></style></defs><path d="M36.514 503.978c0-64.18 12.576-126.454 37.377-185.09 23.948-56.623 58.23-107.471 101.89-151.13s94.507-77.938 151.131-101.89c58.638-24.803 120.91-37.377 185.09-37.377 64.177 0 126.45 12.576 185.086 37.377 56.623 23.949 107.47 58.23 151.13 101.89s77.94 94.507 101.893 151.13c24.801 58.638 37.375 120.911 37.375 185.09 0 64.176-12.576 126.45-37.377 185.087-23.948 56.625-58.232 107.473-101.891 151.131s-94.507 77.94-151.131 101.89c-58.638 24.804-120.91 37.379-185.088 37.379s-126.452-12.576-185.088-37.379c-56.624-23.946-107.472-58.23-151.13-101.89S97.84 745.69 73.89 689.065c-24.802-58.638-37.377-120.911-37.377-185.087z m896.397 0c0-232.091-188.818-420.912-420.91-420.912S91.092 271.886 91.092 503.976c0 232.09 188.818 420.91 420.91 420.91S932.91 736.065 932.91 503.977z" fill="" p-id="6291"></path><path d="M735.199 552.916l-205.389-215.8c-5.112-5.373-11.376-7.942-17.58-7.838-6.224-0.113-12.499 2.455-17.624 7.838l-205.436 215.8c-11.358 11.914-12.807 33.103-3.268 47.265 5.266 7.935 12.9 12.002 20.534 12.002 6.086 0 12.219-2.56 17.215-7.85l188.556-198.07 188.558 198.069c4.996 5.291 11.132 7.85 17.219 7.85 7.629 0 15.263-4.072 20.532-12.003 9.54-14.159 8.04-35.348-3.316-47.263z" fill="" p-id="6292"></path></svg>