<?xml version="1.0" standalone="no"?><!DOCTYPE svg PUBLIC "-//W3C//DTD SVG 1.1//EN" "http://www.w3.org/Graphics/SVG/1.1/DTD/svg11.dtd"><svg t="1601648853448" class="icon" viewBox="0 0 1024 1024" version="1.1" xmlns="http://www.w3.org/2000/svg" p-id="6073" xmlns:xlink="http://www.w3.org/1999/xlink" width="32" height="32"><defs><style type="text/css"></style></defs><path d="M327.93595 950.714314m-73.285686 0a73.285686 73.285686 0 1 0 146.571372 0 73.285686 73.285686 0 1 0-146.571372 0Z" p-id="6074"></path><path d="M833.937122 950.714314m-73.285687 0a73.285686 73.285686 0 1 0 146.571373 0 73.285686 73.285686 0 1 0-146.571373 0Z" p-id="6075"></path><path d="M193.862136 137.57313h740.555361c36.792814 0 64.887327 33.093536 58.788517 69.386448l-59.788322 359.929701c-4.499121 26.994728-26.794767 47.490724-54.089436 49.690295L268.847491 658.871314" p-id="6076"></path><path d="M270.947081 688.765475l-4.0992-59.888303 610.380785-42.291739c13.497364-1.099785 24.495216-11.297793 26.794767-24.695177L963.811756 202.060535c1.499707-8.698301-0.899824-17.296622-6.598712-23.995313-5.698887-6.798672-13.797305-10.49795-22.595586-10.49795H193.862136v-59.988284h740.555361c26.394845 0 51.289982 11.497754 68.386643 31.69381 17.096661 20.096075 24.395235 46.5909 19.996094 72.685804l-59.788322 359.829721c-6.798672 40.692052-40.19215 71.386057-81.284124 74.685413h-0.299942L270.947081 688.765475z" p-id="6077"></path><path d="M948.114821 798.444054c0 16.596758-13.497364 29.994142-29.994141 29.994142L308.93966 827.838313c-16.696739 0-32.793595-5.998828-45.491115-16.8967-12.59754-10.897872-20.895919-25.994923-23.39543-42.491701L134.573716 69.88635c-0.699863-4.699082-4.799063-8.198399-9.498145-8.198398l-94.981449 0.199961C13.497364 61.987893 0 48.59051 0 31.993751 0 15.396993 13.397383 1.999609 29.894161 1.899629l94.981449-0.199961h0.199961c16.596758 0 32.693615 5.998828 45.391135 16.796719 12.69752 10.897872 20.995899 25.994923 23.495411 42.491701l105.579379 698.563562c0.699863 4.799063 4.799063 8.298379 9.598125 8.298379l609.081039 0.599883c16.496778 0 29.894161 13.397383 29.894161 29.994142z" p-id="6078"></path></svg>