<?xml version="1.0" standalone="no"?><!DOCTYPE svg PUBLIC "-//W3C//DTD SVG 1.1//EN" "http://www.w3.org/Graphics/SVG/1.1/DTD/svg11.dtd"><svg t="1601562610063" class="icon" viewBox="0 0 1247 1024" version="1.1" xmlns="http://www.w3.org/2000/svg" p-id="3336" xmlns:xlink="http://www.w3.org/1999/xlink" width="38.96875" height="32"><defs><style type="text/css"></style></defs><path d="M1156.732939 99.164849c-118.114323-114.177179-293.120379-98.428603-293.120379-98.428603a39.371441 39.371441 0 0 0-39.371441 39.371441v19.685721a37.599726 37.599726 0 0 0 39.962013 38.190297s167.328625-17.914006 238.197219 85.829742 40.552584 234.456932 40.552584 234.456932a32.284582 32.284582 0 0 0 33.268868 38.387155h16.536005a45.0803 45.0803 0 0 0 44.096014-39.371441s38.387155-204.928351-80.514597-318.908673z" p-id="3337"></path><path d="M1018.736038 410.592948h23.426008a31.890867 31.890867 0 0 0 30.709724-25.788294s27.756866-107.877749-37.009155-167.131768A173.824912 173.824912 0 0 0 885.857425 179.876303a31.497153 31.497153 0 0 0-25.788294 30.119152v10.039718a24.804008 24.804008 0 0 0 26.378865 24.804008s71.065451-9.646003 105.515462 32.087724 7.677431 109.058892 7.677431 109.058892a18.110863 18.110863 0 0 0 18.504578 24.607151zM465.173577 517.289553c-116.736323 22.638579-195.676062 121.067181-177.171485 219.692641s129.335184 160.438622 246.071506 137.800044 195.676062-121.067181 177.171485-219.889498-129.335184-160.241765-245.874649-137.800044z m-9.646004 259.654654c-35.828011 16.732862-75.199452 8.071145-87.99517-19.68572s5.905716-62.994306 41.930584-78.742883 75.199452-8.268003 87.995171 19.685721-5.905716 63.191163-41.930585 79.924025z m82.286312-83.073741a36.418583 36.418583 0 1 1 36.024869-36.418583 36.221726 36.221726 0 0 1-36.024869 36.418583z" p-id="3338"></path><path d="M899.834286 476.540112c0-11.024004 104.334319-109.846321 0-171.265769s-295.285808 32.087724-289.576949 22.048007c82.089455-143.508903-35.23744-188.78606-94.885173-188.78606C372.65069 138.53629 0 456.263819 0 657.451883s248.827508 364.18583 555.924748 364.185831 553.365605-163.194623 553.365605-364.185831c0-170.084626-209.456067-170.084626-209.456067-180.911771zM570.885896 910.019678c-196.857205 27.560009-369.894689-55.120018-388.005552-184.455201s125.988612-256.898653 322.058388-284.458662 369.894689 55.120018 388.005552 184.652058S767.743101 882.459669 570.885896 910.019678z" p-id="3339"></path></svg>