<?xml version="1.0" standalone="no"?><!DOCTYPE svg PUBLIC "-//W3C//DTD SVG 1.1//EN" "http://www.w3.org/Graphics/SVG/1.1/DTD/svg11.dtd"><svg t="1601562629056" class="icon" viewBox="0 0 1294 1024" version="1.1" xmlns="http://www.w3.org/2000/svg" p-id="4087" xmlns:xlink="http://www.w3.org/1999/xlink" width="40.4375" height="32"><defs><style type="text/css"></style></defs><path d="M826.02831 645.045c88.693-161.265 120.947-314.457 120.947-314.457H648.64231V217.7h354.774v-48.375H648.64231V0H487.38431v169.325h-322.52V217.7h322.52v112.888H213.24031v48.376h556.349c0 8.065 0 8.065-8.065 16.123 0 56.441-40.312 137.074-72.564 201.575-411.215-161.26-532.163-64.5-564.415-48.378-274.139 193.51-16.121 435.406 24.196 427.341 290.27 64.504 475.714-56.44 604.725-209.641 8.058 8.066 16.123 8.066 24.187 8.066 88.693 48.375 516.033 249.95 516.033 249.95V782.115c-64.508 0-298.335-80.632-467.658-137.07zM616.39031 717.61C414.81531 975.625 172.93031 894.995 132.61131 878.864 35.86031 854.677 3.60631 677.29 124.54731 620.848c201.575-64.5 378.963 8.065 507.972 72.57-8.066 16.126-16.129 24.191-16.129 24.191z m0 0" fill="" p-id="4088"></path></svg>